<svg xmlns="http://www.w3.org/2000/svg" viewBox="0 0 50 24" overflow="visible">
  <g>
    <path d="M 22.767 16.398 L 22.767 8.348 C 22.767 7.091 21.24 6.453 20.337 7.347 L 10.057 17.526 C 9.326 18.25 8.336 18.655 7.304 18.655 L 0.787 18.655 C 0.099 18.655 -0.266 17.824 0.228 17.335 L 11.756 5.92 C 12.444 5.239 13.369 4.855 14.358 4.855 L 21.391 4.855 C 22.273 4.855 23.133 5.175 23.799 5.75 L 37.263 17.292 C 37.8 17.76 37.478 18.655 36.746 18.655 L 25.047 18.655 C 23.778 18.655 22.767 17.654 22.767 16.398 Z" fill="rgb(66,232,125)"/>
    <path d="M 32.639 9.711 C 32.037 6.708 31.843 6.282 31.563 5.92 C 31.198 5.643 30.768 5.43 27.735 4.855 C 30.768 4.259 31.198 4.067 31.563 3.791 C 31.843 3.429 32.058 3.003 32.639 0 C 33.241 3.003 33.434 3.429 33.714 3.791 C 34.08 4.067 34.51 4.28 37.542 4.855 C 34.51 5.452 34.08 5.643 33.714 5.92 C 33.434 6.282 33.219 6.708 32.639 9.711 Z" fill="rgb(255,255,255)"/>
  </g>
</svg>
